<svg width="50" height="50" viewBox="0 0 50 50" fill="none" xmlns="http://www.w3.org/2000/svg">
<path d="M33.6438 18.8235H31.3992V11.6176L39.6296 19.5588L37.9835 21.0294V28.8235L39.6296 30.2941L31.3992 38.3823V27.0588H33.6438V32.9411L36.4871 30.2941L35.7389 29.7059V20.147L36.4871 19.5588L33.6438 16.9117V18.8235Z" fill="url(#paint0_linear_63_19)"/>
<path d="M18.829 10.7353L20.4751 12.6471V26.1765H26.9098V38.3824L27.9574 39.1176L24.9645 42.0588L21.8219 39.4118L22.7198 38.3824V27.2059H20.4751V37.6471L18.829 39.1176L24.9645 45L30.651 39.1176L29.3042 37.6471V23.8235H22.7198V11.9118L21.9716 10.7353L24.9645 8.08824L27.9574 10.7353L27.2091 11.9118V22.7941H29.3042V12.6471L30.651 10.7353L24.9645 5L18.829 10.7353Z" fill="url(#paint1_linear_63_19)"/>
<path d="M10 19.5588L11.6461 21.1765V26.0294H16.1354V34.1176L12.8432 30.5882L13.4418 30V27.0588H11.6461V29.1176L10.1496 30.5882L17.9312 38.2353V23.8235H13.4418V20.2941L12.8432 19.7059L16.1354 16.4706V22.6471H17.9312V11.4706L10 19.5588Z" fill="url(#paint2_linear_63_19)"/>
<defs>
<linearGradient id="paint0_linear_63_19" x1="35.5144" y1="11.6176" x2="35.5144" y2="38.3823" gradientUnits="userSpaceOnUse">
<stop stop-color="#FF013E"/>
<stop offset="1" stop-color="#921936"/>
</linearGradient>
<linearGradient id="paint1_linear_63_19" x1="24.74" y1="5" x2="24.74" y2="45" gradientUnits="userSpaceOnUse">
<stop stop-color="#FF013E"/>
<stop offset="1" stop-color="#921936"/>
</linearGradient>
<linearGradient id="paint2_linear_63_19" x1="13.9656" y1="11.4706" x2="13.9656" y2="38.2353" gradientUnits="userSpaceOnUse">
<stop stop-color="#FF013E"/>
<stop offset="1" stop-color="#921936"/>
</linearGradient>
</defs>
</svg>
